<svg id="Layer_2" data-name="Layer 2" xmlns="http://www.w3.org/2000/svg" viewBox="0 0 302.2 301.9"><defs><style>.cls-1{fill:#fff;}</style></defs><title>sword</title><g id="PJJeVk.tif"><path class="cls-1" d="M275.16,44.85c1.8,24.29-13.83,38.69-29.36,53.83-35,34.15-69.32,69.06-104,103.6-8.83,8.8-11.66,8.73-20,.35-8-8-8.11-11.28-.06-19.35q48.72-48.88,97.55-97.64c2.71-2.72,4.82-6,7.2-9.09L224,73.82c-3.21,2.5-6.72,4.7-9.59,7.55Q166.5,129,118.8,176.87c-10.21,10.2-13.26,10-22.86,0-5.82-6-5.17-11.19.38-16.72Q159,97.75,221.63,35.29a13.69,13.69,0,0,1,3.76-3,78.15,78.15,0,0,1,49.77-4.91Z"/><path class="cls-1" d="M41.73,274.4c-12.61-7.47-18-16.68-15.77-27.18a23,23,0,0,1,21-18.53c11.25-.78,21.11,5.51,24.24,15.44a23.51,23.51,0,0,1-9.77,27.17,66.15,66.15,0,0,1-6,3.1Z"/><path class="cls-1" d="M48.3,161.15c9.08-2.37,15.83,2.81,22.58,9.7,20.13,20.56,40.79,40.61,61.15,61,6.73,6.73,10.36,26,6.09,34.32-1.18,2.29-4.95,4.74-7.29,4.53s-4.38-3.63-6.18-5.93c-.65-.83-.49-2.57-.22-3.79,3.42-15.59-7.54-23.67-17.29-31.93-1.72-1.46-7.11-.15-9.89,1.46-12.62,7.29-12.5,7.5-22.17-2.82-11-11.72-11-11.71-3.46-26.8.82-1.66,1.81-3.65,1.58-5.33-.61-4.46-19.05-19.4-23.8-19.57-3.88-.14-8.07.85-11.55-.34-3.26-1.11-5.76-4.43-8.6-6.78,2.75-2.56,5.12-5.92,8.35-7.42C40.26,160.17,43.94,161.15,48.3,161.15Z"/></g></svg>