<svg id="Layer_1" data-name="Layer 1" xmlns="http://www.w3.org/2000/svg" viewBox="0 0 302.2 301.9"><defs><style>.cls-1{fill:#fff;}</style></defs><title>tank</title><g id="_7uqORa.tif" data-name="7uqORa.tif"><path class="cls-1" d="M264.2,87.9c-.5,3.32-1.15,6.62-1.48,10-3.91,39.82-15.55,77.08-37.47,110.74C207,236.67,184,260.15,155,277.32c-2.6,1.54-4.45,1.78-7.23.23-35.54-19.73-61.71-48.42-80.65-84-17.14-32.2-25.72-66.75-27.92-103a9.85,9.85,0,0,0-1-2.63v-23c37.75-6.63,70.83-25.2,105-41h16c34.17,15.8,67.25,34.37,105,41Zm-11-14.34c-7.55-2.13-14.43-4-21.3-6-22.52-6.44-43.21-17.14-63.75-28-11.66-6.18-22.5-6.09-34.1.1-20.67,11-41.57,21.65-64.23,28.19-6.81,2-13.66,3.81-20.93,5.83.44,6.84.81,13.46,1.3,20.07C53.12,133.16,64,170.09,85.4,203.59a194,194,0,0,0,60.43,60.51c3.62,2.29,6.25,2.7,10.12.06A214.35,214.35,0,0,0,202.16,222C225.68,193,240.56,160,248,123.58A248.21,248.21,0,0,0,253.2,73.56Z"/><path class="cls-1" d="M253.2,73.56a248.21,248.21,0,0,1-5.18,50C240.56,160,225.68,193,202.16,222A214.35,214.35,0,0,1,156,264.16c-3.87,2.63-6.5,2.23-10.12-.06A194,194,0,0,1,85.4,203.59C64,170.09,53.12,133.16,50.2,93.71c-.49-6.61-.86-13.23-1.3-20.07,7.27-2,14.12-3.87,20.93-5.83C92.48,61.27,113.38,50.63,134,39.62c11.61-6.19,22.44-6.28,34.1-.1,20.54,10.89,41.22,21.6,63.75,28C238.77,69.51,245.65,71.43,253.2,73.56Z"/></g></svg>